<svg id="Layer_1" data-name="Layer 1" xmlns="http://www.w3.org/2000/svg" viewBox="0 0 540 540"><defs><style>.cls-1{fill:#919191;stroke-width:9px;}.cls-1,.cls-2{stroke:#919191;stroke-miterlimit:10;}.cls-2{fill:none;stroke-width:27.1px;}</style></defs><path class="cls-1" d="M272.9,417H270c-23,.05-44.34-.53-65-1.79-19-1.16-36.32-7.72-50.12-19-13.32-10.86-22.42-25.54-27-43.64-4-15.75-4.23-31.22-4.43-46.18C123.19,295.68,123,283,123,270s.18-25.71.33-36.44c.2-15,.41-30.42,4.43-46.18,4.62-18.1,13.72-32.78,27-43.64,13.8-11.26,31.13-17.82,50.12-19,20.71-1.25,42-1.84,65.1-1.79s44.34.54,65,1.79c19,1.16,36.32,7.72,50.12,19,13.32,10.86,22.42,25.54,27,43.64,4,15.75,4.23,31.22,4.43,46.18.15,10.73.31,23.45.33,36.38V270c0,12.93-.18,25.65-.33,36.38-.2,15-.41,30.42-4.43,46.18-4.62,18.1-13.72,32.78-27,43.64-13.8,11.26-31.13,17.82-50.12,19C315.24,416.41,294.87,417,272.9,417ZM270,394c22.67.05,43.49-.52,63.71-1.75,14.35-.87,26.8-5.53,37-13.85,9.42-7.68,15.91-18.29,19.29-31.52s3.54-27.2,3.73-40.81c.14-10.66.29-23.29.33-36.1s-.19-25.44-.33-36.1c-.19-13.62-.38-27.7-3.73-40.81s-9.87-23.84-19.29-31.53c-10.2-8.31-22.65-13-37-13.84-20.22-1.23-41-1.8-63.65-1.75s-43.49.52-63.71,1.75c-14.35.87-26.8,5.53-37,13.84-9.42,7.69-15.91,18.3-19.29,31.53s-3.54,27.19-3.73,40.81c-.14,10.67-.29,23.31-.33,36.13s.19,25.4.33,36.07c.19,13.61.38,27.7,3.73,40.81s9.87,23.84,19.29,31.52c10.2,8.32,22.65,13,37,13.85C226.54,393.51,247.36,394.08,270,394Zm-.55-52.25A71.78,71.78,0,1,1,341.2,270,71.86,71.86,0,0,1,269.42,341.78Zm0-120.59A48.81,48.81,0,1,0,318.23,270,48.86,48.86,0,0,0,269.42,221.19Zm79.82-45.94a17.23,17.23,0,1,0,17.23,17.23A17.23,17.23,0,0,0,349.24,175.25Z"/><circle class="cls-2" cx="270" cy="270" r="252"/></svg>